<svg width="24" height="24" viewBox="0 0 24 24" fill="none" xmlns="http://www.w3.org/2000/svg">
<g id="Iconly/Bulk/Notification">
<g id="Notification">
<path id="Path_425-2" d="M3.50025 13.9124V13.7079C3.53516 13.0531 3.74182 12.4187 4.09971 11.8677C4.69647 11.1991 5.10672 10.3869 5.28968 9.51192C5.33442 8.84518 5.28968 8.16066 5.33442 7.48503C5.65651 4.24024 8.86854 2 11.9464 2H12.0358C15.1673 2 18.2989 4.24024 18.6388 7.48503C18.7015 8.15177 18.6388 8.84518 18.6925 9.51192C18.871 10.3884 19.2818 11.2017 19.8825 11.8677C20.2559 12.4124 20.4697 13.0495 20.4999 13.7079V13.9124C20.5054 14.7993 20.1875 15.6582 19.6051 16.3304C18.858 17.1274 17.8423 17.624 16.751 17.7261C13.5641 18.135 10.3376 18.135 7.15069 17.7261C6.07204 17.6157 5.07049 17.1197 4.33233 16.3304C3.7682 15.6518 3.47237 14.7921 3.50025 13.9124Z" fill="#F68685"/>
<path id="Path_426" opacity="0.4" d="M13.1632 19.0952C12.5279 19.0507 12.009 19.0952 11.49 19.0952C10.9754 19.0863 10.4616 19.14 9.96008 19.2552C9.53062 19.353 9.06537 19.5841 9.06537 20.073C9.11043 20.5456 9.36661 20.9731 9.76325 21.2376C10.5273 21.8211 11.4901 22.0858 12.4474 21.9755C13.3779 21.9069 14.2284 21.4273 14.7647 20.6687C15.0612 20.2844 14.9935 19.735 14.6126 19.433C14.1615 19.2125 13.6659 19.097 13.1632 19.0952Z" fill="#F68685"/>
</g>
</g>
</svg>
