<svg xmlns="http://www.w3.org/2000/svg" width="154.717" height="158.563" viewBox="0 0 154.717 158.563">
  <g id="Group_35800" data-name="Group 35800" transform="translate(-328.629 -291.682)">
    <path id="Path_17204" data-name="Path 17204" d="M328.764,1499.344c.3-.569,12.723-11.084,14.339-11.972,6.009-3.255,22.874-10.811,30.066-10.811,21.007,0,40.6,3.778,61.634,3.528,9.741-.114,23.716-4.8,30.862-11.38,4.575-4.233,8.216-8.6,12.882-13.269-1.479,4.78-13.064,16.774-18.435,19.6-17.707,9.332-33.73,8.9-51.141,6.259a180.4,180.4,0,0,0-37.577-1.411c-12.176.888-31.34,13.132-39.921,21.872-3.209,3.3-2.959-1.912-2.708-2.413Z" transform="translate(0 -1066.711)" fill="#8e623f" fill-rule="evenodd"/>
    <path id="Path_17205" data-name="Path 17205" d="M1678.588,1452.975c-2.026,8.239-5.576,18.8-17.912,25.491-.2.114-4.893,1.229-4.12.273.5-.592,1.343,1.525,8.444-4.689,5.235-4.575,7.488-7.556,9.923-13.246.706-1.684,4.006-9.24,3.664-7.829Z" transform="translate(-1217.111 -1064.292)" fill="#8e623f" fill-rule="evenodd"/>
    <path id="Path_17206" data-name="Path 17206" d="M498.953,1329.189c-3.118,1.343-8.74,6.669-10.788,11.4-5.736,13.155-9.878,28.382-13.451,32.273-.114.159-3.6,2.708-3.186,1.753,5.1-12.085,10.083-21.44,14.953-34.413,3.71-9.832,15.2-12.222,12.472-11.016Z" transform="translate(-130.951 -950.725)" fill="#8e623f" fill-rule="evenodd"/>
    <path id="Path_17207" data-name="Path 17207" d="M451.405,1861.825c11.926,2.367,14.179,1.593,31.909,11.243,3.118,1.684,14.68,7.351,25.992,6.145,11.653-1.229,23.056-9.332,23.056-9.286.045,2.139-15.773,9.992-18.344,10.538a45.7,45.7,0,0,1-18.868-.273c-10.606-2.185-38.191-20.552-48.365-14.976.182,1.161,4.3-3.459,4.62-3.391Z" transform="translate(-108.303 -1439.207)" fill="#8e623f" fill-rule="evenodd"/>
    <path id="Path_17208" data-name="Path 17208" d="M710.163,1253.591c0-8.307,3.915-8.6,9.4-11.175a25.886,25.886,0,0,1,4.666-1.639c1.092.819-5.144,13.519-14.066,12.814Z" transform="translate(-349.718 -869.938)" fill="#89ab76" fill-rule="evenodd"/>
    <path id="Path_17209" data-name="Path 17209" d="M618.185,1490.752c7.488,7.01,16.615-6.623,16.637-6.874.137-1.366-11.084-.136-16.637,6.874Z" transform="translate(-265.41 -1092.327)" fill="#699c75" fill-rule="evenodd"/>
    <path id="Path_17210" data-name="Path 17210" d="M509.648,1502.159c-9.7-3.414-1.844-17.8-1.639-17.935,1.161-.751,5.258,9.764,1.639,17.935Z" transform="translate(-161.493 -1093.061)" fill="#699c75" fill-rule="evenodd"/>
    <path id="Path_17211" data-name="Path 17211" d="M1865.846,1367.813c-3.391-7.6.046-9.445,4.006-14.043a28.953,28.953,0,0,1,3.6-3.414c1.343.319.819,14.453-7.6,17.457Z" transform="translate(-1407.761 -970.39)" fill="#699c75" fill-rule="evenodd"/>
    <path id="Path_17212" data-name="Path 17212" d="M2070.861,1327.146c-3.391-7.579.068-9.445,4.006-14.02a29.419,29.419,0,0,1,3.6-3.437c1.343.319.842,14.453-7.6,17.457Z" transform="translate(-1595.683 -933.114)" fill="#89ab76" fill-rule="evenodd"/>
    <path id="Path_17213" data-name="Path 17213" d="M1870.116,1651.99c5.986,5.781,8.9,3.164,14.566.979a28.1,28.1,0,0,0,4.415-2.208c.159-1.366-13.292-5.69-18.982,1.229Z" transform="translate(-1412.941 -1243.37)" fill="#699c75" fill-rule="evenodd"/>
    <path id="Path_17214" data-name="Path 17214" d="M1348.274,1891.737c0-8.307,3.915-8.581,9.4-11.152a27.668,27.668,0,0,1,4.688-1.661c1.093.842-5.167,13.519-14.088,12.814Z" transform="translate(-934.616 -1454.872)" fill="#89ab76" fill-rule="evenodd"/>
    <path id="Path_17215" data-name="Path 17215" d="M1142.484,1916.934c0-10.265,12.085-15.181,12.268-15.021,1.092.842-3.346,15.727-12.268,15.021Z" transform="translate(-745.987 -1475.949)" fill="#89ab76" fill-rule="evenodd"/>
    <path id="Path_17216" data-name="Path 17216" d="M832.163,1948.343c8.239-6.122,19.369.637,19.369.865-.023,1.388-14.635,6.714-19.369-.865Z" transform="translate(-461.544 -1516.166)" fill="#699c75" fill-rule="evenodd"/>
    <path id="Path_17217" data-name="Path 17217" d="M985.237,2052.7c10.242-.523,15.75,11.289,15.613,11.494-.774,1.138-15.886-2.549-15.613-11.494Z" transform="translate(-601.849 -1614.148)" fill="#699c75" fill-rule="evenodd"/>
    <path id="Path_17218" data-name="Path 17218" d="M1203.894,2052.548c8.057,6.35,19.391-.068,19.391-.3.023-1.388-14.407-7.147-19.391.3Z" transform="translate(-802.276 -1610.607)" fill="#89ab76" fill-rule="evenodd"/>
    <path id="Path_17219" data-name="Path 17219" d="M1669.239,1733.071c6.782,7.693,19.1,3.391,19.141,3.164.273-1.343-12.9-9.6-19.141-3.164Z" transform="translate(-1228.816 -1318.965)" fill="#89ab76" fill-rule="evenodd"/>
    <path id="Path_17220" data-name="Path 17220" d="M880.141,2021.522c-.182-1.684,4.461-3.482,4.256.046-.159,3.232-4.1,1.411-4.256-.046Z" transform="translate(-505.516 -1583.769)" fill="#e09590" fill-rule="evenodd"/>
    <path id="Path_17221" data-name="Path 17221" d="M905.366,1975.682c1.32-1.047,5.326,1.889,2.23,3.619-2.822,1.593-3.391-2.708-2.23-3.619Z" transform="translate(-528.124 -1543.369)" fill="#e09590" fill-rule="evenodd"/>
    <path id="Path_17222" data-name="Path 17222" d="M949.831,1963.241c1.661.25,2.231,5.212-1.161,4.12-3.073-1-.319-4.347,1.161-4.12Z" transform="translate(-567.059 -1532.157)" fill="#e09590" fill-rule="evenodd"/>
    <path id="Path_17223" data-name="Path 17223" d="M982.817,2003.249c.41,1.639-3.937,4.074-4.233.546-.273-3.232,3.869-1.98,4.233-.546Z" transform="translate(-595.743 -1567.476)" fill="#e09590" fill-rule="evenodd"/>
    <path id="Path_17224" data-name="Path 17224" d="M921.342,2057.653c-1.684.068-3.164-4.688.364-4.256,3.209.41,1.115,4.21-.364,4.256Z" transform="translate(-541.641 -1614.779)" fill="#e09590" fill-rule="evenodd"/>
    <path id="Path_17225" data-name="Path 17225" d="M965.24,2047.095c-1.093,1.3-5.576-.819-2.891-3.118,2.481-2.094,3.869,2,2.891,3.118Z" transform="translate(-580.1 -1605.631)" fill="#e09590" fill-rule="evenodd"/>
    <path id="Path_17226" data-name="Path 17226" d="M917.707,1991.234c2.617-.455,6.623,2.481,3.505,5.986-1.616,1.866-4.962.569-5.8-.933a3.5,3.5,0,0,1,2.3-5.053Z" transform="translate(-537.461 -1557.783)" fill="#ffe99e" fill-rule="evenodd"/>
    <path id="Path_17227" data-name="Path 17227" d="M1252.69,2016.883c-.182-1.684,4.438-3.482,4.256.045-.182,3.232-4.12,1.434-4.256-.045Z" transform="translate(-846.998 -1579.516)" fill="#e09590" fill-rule="evenodd"/>
    <path id="Path_17228" data-name="Path 17228" d="M1277.651,1971.042c1.32-1.047,5.326,1.889,2.253,3.619-2.845,1.593-3.414-2.708-2.253-3.619Z" transform="translate(-869.365 -1539.116)" fill="#e09590" fill-rule="evenodd"/>
    <path id="Path_17229" data-name="Path 17229" d="M1322.349,1958.6c1.684.273,2.23,5.212-1.138,4.12-3.073-1-.319-4.347,1.138-4.12Z" transform="translate(-908.532 -1527.904)" fill="#e09590" fill-rule="evenodd"/>
    <path id="Path_17230" data-name="Path 17230" d="M1355.116,1998.743c.41,1.639-3.937,4.051-4.233.524-.25-3.232,3.892-1.957,4.233-.524Z" transform="translate(-936.998 -1563.334)" fill="#e09590" fill-rule="evenodd"/>
    <path id="Path_17231" data-name="Path 17231" d="M1293.721,2053.231c-1.684.068-3.141-4.688.364-4.233,3.209.41,1.115,4.188-.364,4.233Z" transform="translate(-882.976 -1610.744)" fill="#e09590" fill-rule="evenodd"/>
    <path id="Path_17232" data-name="Path 17232" d="M1337.689,2042.48c-1.093,1.275-5.6-.842-2.891-3.141,2.458-2.094,3.846,2,2.891,3.141Z" transform="translate(-921.482 -1601.381)" fill="#e09590" fill-rule="evenodd"/>
    <path id="Path_17233" data-name="Path 17233" d="M1290.02,1986.639c2.617-.432,6.623,2.481,3.528,6.009-1.639,1.844-4.962.546-5.827-.956a3.514,3.514,0,0,1,2.3-5.053Z" transform="translate(-878.729 -1553.574)" fill="#ffe99e" fill-rule="evenodd"/>
    <path id="Path_17234" data-name="Path 17234" d="M1567.107,1743.679c-.182-1.684,4.461-3.482,4.256.046-.159,3.232-4.1,1.434-4.256-.046Z" transform="translate(-1135.195 -1329.096)" fill="#e09590" fill-rule="evenodd"/>
    <path id="Path_17235" data-name="Path 17235" d="M1592.332,1697.839c1.32-1.047,5.326,1.889,2.23,3.619-2.822,1.593-3.391-2.708-2.23-3.619Z" transform="translate(-1157.803 -1288.695)" fill="#e09590" fill-rule="evenodd"/>
    <path id="Path_17236" data-name="Path 17236" d="M1636.927,1685.4c1.661.273,2.23,5.212-1.138,4.12-3.1-1-.319-4.347,1.138-4.12Z" transform="translate(-1196.867 -1277.483)" fill="#e09590" fill-rule="evenodd"/>
    <path id="Path_17237" data-name="Path 17237" d="M1669.783,1725.54c.41,1.639-3.937,4.051-4.233.523-.273-3.232,3.869-1.957,4.233-.523Z" transform="translate(-1225.422 -1312.914)" fill="#e09590" fill-rule="evenodd"/>
    <path id="Path_17238" data-name="Path 17238" d="M1608.307,1780.029c-1.684.068-3.164-4.689.364-4.233,3.209.41,1.115,4.188-.364,4.233Z" transform="translate(-1171.32 -1360.324)" fill="#e09590" fill-rule="evenodd"/>
    <path id="Path_17239" data-name="Path 17239" d="M1652.231,1769.277c-1.115,1.275-5.6-.842-2.913-3.141,2.481-2.094,3.869,2,2.913,3.141Z" transform="translate(-1209.782 -1350.96)" fill="#e09590" fill-rule="evenodd"/>
    <path id="Path_17240" data-name="Path 17240" d="M1604.672,1713.661c2.617-.455,6.623,2.458,3.505,5.986-1.616,1.844-4.939.546-5.8-.956a3.476,3.476,0,0,1,2.3-5.03Z" transform="translate(-1167.14 -1303.356)" fill="#ffe99e" fill-rule="evenodd"/>
    <path id="Path_17241" data-name="Path 17241" d="M1991.239,1499.028c-.182-1.684,4.438-3.505,4.256.046-.182,3.232-4.1,1.411-4.256-.046Z" transform="translate(-1523.959 -1104.837)" fill="#e09590" fill-rule="evenodd"/>
    <path id="Path_17242" data-name="Path 17242" d="M2016.363,1453.215c1.343-1.07,5.349,1.889,2.253,3.619-2.822,1.593-3.391-2.708-2.253-3.619Z" transform="translate(-1546.488 -1064.463)" fill="#e09590" fill-rule="evenodd"/>
    <path id="Path_17243" data-name="Path 17243" d="M2060.9,1440.853c1.684.25,2.23,5.189-1.138,4.1-3.073-.979-.319-4.324,1.138-4.1Z" transform="translate(-1585.493 -1053.331)" fill="#e09590" fill-rule="evenodd"/>
    <path id="Path_17244" data-name="Path 17244" d="M2093.893,1480.861c.41,1.639-3.915,4.074-4.21.546-.273-3.232,3.869-1.98,4.21-.546Z" transform="translate(-1614.186 -1088.65)" fill="#e09590" fill-rule="evenodd"/>
    <path id="Path_17245" data-name="Path 17245" d="M2032.315,1535.264c-1.707.046-3.164-4.688.341-4.256,3.209.41,1.115,4.21-.341,4.256Z" transform="translate(-1559.959 -1135.952)" fill="#e09590" fill-rule="evenodd"/>
    <path id="Path_17246" data-name="Path 17246" d="M2076.238,1524.707c-1.093,1.3-5.6-.819-2.891-3.118,2.458-2.094,3.846,2,2.891,3.118Z" transform="translate(-1598.443 -1126.806)" fill="#e09590" fill-rule="evenodd"/>
    <path id="Path_17247" data-name="Path 17247" d="M2028.569,1468.842c2.617-.455,6.623,2.458,3.528,5.986-1.639,1.844-4.962.546-5.827-.933a3.509,3.509,0,0,1,2.3-5.053Z" transform="translate(-1555.69 -1078.953)" fill="#ffe99e" fill-rule="evenodd"/>
    <path id="Path_17248" data-name="Path 17248" d="M626.589,1389c-.182-1.661,4.461-3.482,4.256.068-.182,3.232-4.1,1.411-4.256-.068Z" transform="translate(-273.108 -1004)" fill="#e09590" fill-rule="evenodd"/>
    <path id="Path_17249" data-name="Path 17249" d="M651.814,1343.045c1.32-1.047,5.326,1.912,2.23,3.642-2.822,1.57-3.391-2.708-2.23-3.642Z" transform="translate(-295.716 -963.489)" fill="#e09590" fill-rule="evenodd"/>
    <path id="Path_17250" data-name="Path 17250" d="M696.247,1330.611c1.684.273,2.23,5.212-1.138,4.12-3.073-1-.319-4.324,1.138-4.12Z" transform="translate(-334.641 -952.284)" fill="#e09590" fill-rule="evenodd"/>
    <path id="Path_17251" data-name="Path 17251" d="M729.265,1370.831c.41,1.639-3.937,4.074-4.233.524-.273-3.209,3.869-1.957,4.233-.524Z" transform="translate(-363.335 -987.793)" fill="#e09590" fill-rule="evenodd"/>
    <path id="Path_17252" data-name="Path 17252" d="M667.789,1425.242c-1.684.046-3.164-4.711.364-4.256,3.209.41,1.115,4.188-.364,4.256Z" transform="translate(-309.233 -1035.103)" fill="#e09590" fill-rule="evenodd"/>
    <path id="Path_17253" data-name="Path 17253" d="M711.587,1414.467c-1.093,1.275-5.6-.842-2.891-3.141,2.481-2.094,3.846,2,2.891,3.141Z" transform="translate(-347.591 -1025.739)" fill="#e09590" fill-rule="evenodd"/>
    <path id="Path_17254" data-name="Path 17254" d="M664.129,1358.852c2.617-.455,6.646,2.458,3.528,5.986-1.639,1.844-4.962.546-5.8-.956a3.478,3.478,0,0,1,2.276-5.03Z" transform="translate(-305.049 -978.135)" fill="#ffe99e" fill-rule="evenodd"/>
    <path id="Path_17255" data-name="Path 17255" d="M492.048,1687.855c-.159-1.661,4.461-3.482,4.279.068-.182,3.232-4.12,1.411-4.279-.068Z" transform="translate(-149.787 -1277.937)" fill="#e09590" fill-rule="evenodd"/>
    <path id="Path_17256" data-name="Path 17256" d="M517.26,1641.9c1.32-1.047,5.326,1.912,2.23,3.642-2.822,1.57-3.391-2.708-2.23-3.642Z" transform="translate(-172.382 -1237.425)" fill="#e09590" fill-rule="evenodd"/>
    <path id="Path_17257" data-name="Path 17257" d="M561.966,1629.469c1.661.273,2.23,5.212-1.138,4.12-3.073-1-.319-4.324,1.138-4.12Z" transform="translate(-211.558 -1226.22)" fill="#e09590" fill-rule="evenodd"/>
    <path id="Path_17258" data-name="Path 17258" d="M594.71,1669.69c.41,1.639-3.937,4.074-4.233.523-.273-3.209,3.869-1.957,4.233-.523Z" transform="translate(-240.001 -1261.729)" fill="#e09590" fill-rule="evenodd"/>
    <path id="Path_17259" data-name="Path 17259" d="M533.337,1724.1c-1.684.046-3.141-4.711.364-4.256,3.209.41,1.115,4.188-.364,4.256Z" transform="translate(-186.001 -1309.039)" fill="#e09590" fill-rule="evenodd"/>
    <path id="Path_17260" data-name="Path 17260" d="M577.305,1713.326c-1.092,1.275-5.6-.842-2.891-3.141,2.458-2.094,3.846,2,2.891,3.141Z" transform="translate(-224.507 -1299.675)" fill="#e09590" fill-rule="evenodd"/>
    <path id="Path_17261" data-name="Path 17261" d="M529.6,1657.71c2.617-.455,6.623,2.458,3.505,5.986-1.616,1.844-4.939.546-5.8-.956a3.476,3.476,0,0,1,2.3-5.03Z" transform="translate(-181.719 -1252.071)" fill="#ffe99e" fill-rule="evenodd"/>
    <path id="Path_17262" data-name="Path 17262" d="M1306.464,1433.683c-1.844,4.78-4.3,12.677-2.048,19.437a6.068,6.068,0,0,1,4.1,4.575c-.615.842-2.458-3.141-3.96-3.232a4.336,4.336,0,0,1,1.479,2.458,3.815,3.815,0,0,1,.068,2.026c-.114.478-1.183-3.755-2.663-4.256-.455-.159-.228,1.024-.3,2.208a4.92,4.92,0,0,1-.569,2.526c-.228,0-.933-4.552.3-6.509-1.365-7.351-.2-10.242,1.184-18.208.136-.8.705-2.117,2.412-1.024Z" transform="translate(-892.351 -1046.388)" fill="#6e4b2a" fill-rule="evenodd"/>
    <path id="Path_17263" data-name="Path 17263" d="M810.545,598.144c.956,3.71,1.229,14.657-1.866,23.056-3.937,10.765-12.086,18.982-17.571,19.983-9.627,1.73,23.534,3.6,25.832,3.414,71.625-6.236,51.71-91.813,18.231-87.034-9.536,1.343-22.6,7.238-25.354,16.637-2.026,7.033-1.411,15.522.728,23.943Z" transform="translate(-422.31 -243.532)" fill="#00b4d2" fill-rule="evenodd"/>
    <path id="Path_17264" data-name="Path 17264" d="M848.752,995.474c2.367-2.731,21.69-21.736,21.667,5.713,0,9.332-4.939,21.394-13.838,27.517-7.374,5.076-18.049,5.212-25.309,4.347-2.982-.341,3.3-1.684,7.42-7.67,3.437-5.03,12.04-17.593,10.06-29.906Z" transform="translate(-460.016 -636.902)" fill="#2dd0eb" fill-rule="evenodd"/>
    <path id="Path_17265" data-name="Path 17265" d="M1350.168,721.187c-1.047-1.183-8.216-4.006-8.376.364-.136,4.347-.25,4.962-.705,5.258-.842.569-3.687.478-2.549.66.023,0,3.027.569,3.664-.2,1.161-1.479.637-5.189,1.616-6.669.91-1.388,6.919,1.229,6.35.592Z" transform="translate(-925.449 -391.862)" fill="#fff" fill-rule="evenodd"/>
    <path id="Path_17266" data-name="Path 17266" d="M1435.2,696.173c-1.138-1.593-1.616-2.071-2.253-2.253a2.293,2.293,0,0,0-1.434.25,7.9,7.9,0,0,1,1.73.569,12.727,12.727,0,0,1,1.957,1.434Z" transform="translate(-1010.917 -368.668)" fill="#6e4b2a" fill-rule="evenodd"/>
    <path id="Path_17267" data-name="Path 17267" d="M1399.451,817.06c9.9-5.1,4.916,9.172-1.479,4.575-1.479-1.07-1.115-3.346,1.479-4.575Z" transform="translate(-979.375 -480.542)" fill="#2dd0eb" fill-rule="evenodd"/>
    <path id="Path_17268" data-name="Path 17268" d="M1274.741,622.394c-2.686-4.029-6.509,5.212-3.255,4.051.114-.046,2.253-2.8,3.027-3.369.3-.2.478-.273.228-.683Z" transform="translate(-863.086 -302.196)" fill="#fff" fill-rule="evenodd"/>
    <path id="Path_17269" data-name="Path 17269" d="M1560.219,630.234c-1.024.865-5.849-4.028-4.6-4.233a6.26,6.26,0,0,0,3.369-1.434c1.434-1.343,2.982-2.913,3.118-1.252.114,1.548-.5,5.713-1.889,6.919Z" transform="translate(-1124.484 -303.322)" fill="#ffb17d" fill-rule="evenodd"/>
    <path id="Path_17270" data-name="Path 17270" d="M1351.486,1096.051c-10.447-3.778-21.417,10.788-26.037,17.958-5.007,7.784-5.826,11.289-5.485,20.438,17.593-5.644,28.746-18.64,31.522-38.4Z" transform="translate(-908.604 -736.728)" fill="#2dd0eb" fill-rule="evenodd"/>
    <path id="Path_17271" data-name="Path 17271" d="M1216.545,1486.193c-1.844,4.8-4.324,12.677-2.048,19.437a6.1,6.1,0,0,1,4.1,4.575c-.615.842-2.481-3.141-3.96-3.209a4.478,4.478,0,0,1,1.479,2.458,4.392,4.392,0,0,1,.068,2.026c-.136.478-1.183-3.778-2.663-4.256-.478-.159-.228,1.024-.3,2.185a5.387,5.387,0,0,1-.569,2.526c-.25,0-.933-4.552.273-6.509-1.343-7.352-.182-10.242,1.184-18.208.136-.8.705-2.094,2.435-1.024Z" transform="translate(-809.92 -1094.529)" fill="#6e4b2a" fill-rule="evenodd"/>
    <path id="Path_17272" data-name="Path 17272" d="M1493.582,886.338c-.455-1.548,5.462,4.256,7.033,11.13.159.66,5.8,23.739-16.524,10.083-2.026-1.252-8.4,2.026-7.875.364a18.237,18.237,0,0,1,7.283-8.1c4.1-2.208,11.539-1.57,11.516-1.616-.364-.546.023-6.919-1.434-11.858Z" transform="translate(-1051.861 -544.836)" fill="#ffb17d" fill-rule="evenodd"/>
    <path id="Path_17273" data-name="Path 17273" d="M1563.412,490.887c-.41-.774-2.185-3.255-2.891-1.434-.865,2.276-.2,7.989,1.457,8.376,1.388.319,8.148-7.374,3.846-8.785-.8-.25-1.525.8-2.413,1.844Z" transform="translate(-1128.815 -180.68)" fill="#00b4d2" fill-rule="evenodd"/>
    <path id="Path_17274" data-name="Path 17274" d="M1649.287,398.663c.592-.66,2.868-2.663,3.141-.706.341,2.39-2.549,5.167-4.233,5.167-1.434,0-3.6-7.442-.819-6.805.819.182,1.3,1.115,1.912,2.344Z" transform="translate(-1207.544 -95.876)" fill="#00b4d2" fill-rule="evenodd"/>
    <path id="Path_17275" data-name="Path 17275" d="M1579.339,417.638c.319-.341,1.5-1.388,1.639-.364a2.8,2.8,0,0,1-2.208,2.663c-.728,0-1.844-3.846-.41-3.505.41.091.66.569.979,1.206Z" transform="translate(-1144.878 -114.327)" fill="#00b4d2" fill-rule="evenodd"/>
    <path id="Path_17276" data-name="Path 17276" d="M1653.192,292.909c.3-.341,1.479-1.366,1.639-.364a2.8,2.8,0,0,1-2.208,2.663c-.728,0-1.866-3.846-.41-3.505.41.091.66.569.979,1.206Z" transform="translate(-1212.563)" fill="#00b4d2" fill-rule="evenodd"/>
    <path id="Path_17277" data-name="Path 17277" d="M1526.97,304.918c.3-.341,1.479-1.388,1.616-.387a2.785,2.785,0,0,1-2.185,2.686c-.751,0-1.866-3.846-.432-3.505.432.091.683.569,1,1.206Z" transform="translate(-1096.856 -11.008)" fill="#00b4d2" fill-rule="evenodd"/>
  </g>
</svg>
